<svg id="svg" xmlns="http://www.w3.org/2000/svg" xmlns:xlink="http://www.w3.org/1999/xlink" width="400" height="400" viewBox="0, 0, 400,400"><g id="svgg"><path id="path0" d="M211.227 91.750 C 205.136 98.480,130.966 347.255,133.176 353.540 C 136.683 363.511,163.857 370.047,170.427 362.500 C 177.917 353.896,250.784 104.494,247.342 99.242 C 241.471 90.281,217.126 85.231,211.227 91.750 M87.690 127.500 C 65.726 150.631,8.000 222.780,8.000 227.102 C 8.000 230.365,21.362 247.939,50.450 282.932 C 99.562 342.013,98.457 341.296,116.500 325.831 C 131.841 312.682,131.410 311.529,94.851 268.000 C 77.760 247.650,63.305 229.940,62.730 228.644 C 62.154 227.348,76.154 208.949,93.841 187.757 C 132.245 141.743,132.426 141.167,113.225 126.101 C 102.712 117.852,96.530 118.191,87.690 127.500 M263.971 129.843 C 249.229 143.683,250.376 145.710,317.387 224.243 C 319.832 227.107,316.561 231.787,289.360 264.347 C 248.282 313.516,248.440 313.079,266.477 327.601 C 282.421 340.437,283.150 339.948,328.572 286.000 C 350.337 260.150,369.629 236.073,371.445 232.495 C 375.497 224.510,378.695 229.198,326.410 166.500 C 280.981 112.025,282.192 112.736,263.971 129.843 " stroke="none" fill="white" fill-rule="evenodd"></path></g></svg>